<svg xmlns="http://www.w3.org/2000/svg" width="800" height="800" viewBox="0 0 800 800"><rect width="800" height="800" fill="#000"/><line x1="400" y1="400" x2="508.7263108206966" y2="598.2678686156962" stroke="hsla(123.41970695413319, 70%, 60%, 0.6)" stroke-width="2"/><circle cx="508.7263108206966" cy="598.2678686156962" r="4" fill="hsla(123.41970695413319, 70%, 60%, 0.6)"/><line x1="400" y1="400" x2="336.6845572851486" y2="617.0776660642731" stroke="hsla(123.41970695413319, 70%, 60%, 0.6)" stroke-width="2"/><circle cx="336.6845572851486" cy="617.0776660642731" r="4" fill="hsla(123.41970695413319, 70%, 60%, 0.6)"/><line x1="400" y1="400" x2="201.73213138430384" y2="508.7263108206966" stroke="hsla(123.41970695413319, 70%, 60%, 0.6)" stroke-width="2"/><circle cx="201.73213138430384" cy="508.7263108206966" r="4" fill="hsla(123.41970695413319, 70%, 60%, 0.6)"/><line x1="400" y1="400" x2="182.92233393572693" y2="336.6845572851487" stroke="hsla(123.41970695413319, 70%, 60%, 0.6)" stroke-width="2"/><circle cx="182.92233393572693" cy="336.6845572851487" r="4" fill="hsla(123.41970695413319, 70%, 60%, 0.6)"/><line x1="400" y1="400" x2="291.27368917930335" y2="201.73213138430384" stroke="hsla(123.41970695413319, 70%, 60%, 0.6)" stroke-width="2"/><circle cx="291.27368917930335" cy="201.73213138430384" r="4" fill="hsla(123.41970695413319, 70%, 60%, 0.6)"/><line x1="400" y1="400" x2="463.3154427148513" y2="182.92233393572693" stroke="hsla(123.41970695413319, 70%, 60%, 0.6)" stroke-width="2"/><circle cx="463.3154427148513" cy="182.92233393572693" r="4" fill="hsla(123.41970695413319, 70%, 60%, 0.6)"/><line x1="400" y1="400" x2="598.2678686156962" y2="291.27368917930335" stroke="hsla(123.41970695413319, 70%, 60%, 0.6)" stroke-width="2"/><circle cx="598.2678686156962" cy="291.27368917930335" r="4" fill="hsla(123.41970695413319, 70%, 60%, 0.6)"/><line x1="400" y1="400" x2="617.0776660642731" y2="463.3154427148513" stroke="hsla(123.41970695413319, 70%, 60%, 0.6)" stroke-width="2"/><circle cx="617.0776660642731" cy="463.3154427148513" r="4" fill="hsla(123.41970695413319, 70%, 60%, 0.6)"/><line x1="400" y1="400" x2="338.5351248612159" y2="425.91506489723736" stroke="hsla(102.27122198029429, 70%, 60%, 0.6)" stroke-width="2"/><circle cx="338.5351248612159" cy="425.91506489723736" r="4" fill="hsla(102.27122198029429, 70%, 60%, 0.6)"/><line x1="400" y1="400" x2="408.28933302766217" y2="333.8123242407557" stroke="hsla(102.27122198029429, 70%, 60%, 0.6)" stroke-width="2"/><circle cx="408.28933302766217" cy="333.8123242407557" r="4" fill="hsla(102.27122198029429, 70%, 60%, 0.6)"/><line x1="400" y1="400" x2="453.175542111122" y2="440.27261086200696" stroke="hsla(102.27122198029429, 70%, 60%, 0.6)" stroke-width="2"/><circle cx="453.175542111122" cy="440.27261086200696" r="4" fill="hsla(102.27122198029429, 70%, 60%, 0.6)"/><line x1="400" y1="400" x2="515.5378889755649" y2="265.87992753494984" stroke="hsla(177.3884726063765, 70%, 60%, 0.6)" stroke-width="2"/><circle cx="515.5378889755649" cy="265.87992753494984" r="4" fill="hsla(177.3884726063765, 70%, 60%, 0.6)"/><line x1="400" y1="400" x2="572.3059163067921" y2="359.40604930981715" stroke="hsla(177.3884726063765, 70%, 60%, 0.6)" stroke-width="2"/><circle cx="572.3059163067921" cy="359.40604930981715" r="4" fill="hsla(177.3884726063765, 70%, 60%, 0.6)"/><line x1="400" y1="400" x2="563.2589400715196" y2="468.4376805106971" stroke="hsla(177.3884726063765, 70%, 60%, 0.6)" stroke-width="2"/><circle cx="563.2589400715196" cy="468.4376805106971" r="4" fill="hsla(177.3884726063765, 70%, 60%, 0.6)"/><line x1="400" y1="400" x2="491.8525976962087" y2="551.3284438676969" stroke="hsla(177.3884726063765, 70%, 60%, 0.6)" stroke-width="2"/><circle cx="491.8525976962087" cy="551.3284438676969" r="4" fill="hsla(177.3884726063765, 70%, 60%, 0.6)"/><line x1="400" y1="400" x2="385.36168495591636" y2="576.4168851318673" stroke="hsla(177.3884726063765, 70%, 60%, 0.6)" stroke-width="2"/><circle cx="385.36168495591636" cy="576.4168851318673" r="4" fill="hsla(177.3884726063765, 70%, 60%, 0.6)"/><line x1="400" y1="400" x2="284.4621110244351" y2="534.1200724650502" stroke="hsla(177.3884726063765, 70%, 60%, 0.6)" stroke-width="2"/><circle cx="284.4621110244351" cy="534.1200724650502" r="4" fill="hsla(177.3884726063765, 70%, 60%, 0.6)"/><line x1="400" y1="400" x2="227.6940836932078" y2="440.59395069018285" stroke="hsla(177.3884726063765, 70%, 60%, 0.6)" stroke-width="2"/><circle cx="227.6940836932078" cy="440.59395069018285" r="4" fill="hsla(177.3884726063765, 70%, 60%, 0.6)"/><line x1="400" y1="400" x2="236.74105992848038" y2="331.5623194893029" stroke="hsla(177.3884726063765, 70%, 60%, 0.6)" stroke-width="2"/><circle cx="236.74105992848038" cy="331.5623194893029" r="4" fill="hsla(177.3884726063765, 70%, 60%, 0.6)"/><line x1="400" y1="400" x2="308.1474023037913" y2="248.67155613230304" stroke="hsla(177.3884726063765, 70%, 60%, 0.6)" stroke-width="2"/><circle cx="308.1474023037913" cy="248.67155613230304" r="4" fill="hsla(177.3884726063765, 70%, 60%, 0.6)"/><line x1="400" y1="400" x2="414.6383150440836" y2="223.58311486813278" stroke="hsla(177.3884726063765, 70%, 60%, 0.6)" stroke-width="2"/><circle cx="414.6383150440836" cy="223.58311486813278" r="4" fill="hsla(177.3884726063765, 70%, 60%, 0.6)"/><line x1="400" y1="400" x2="426.1342157324024" y2="323.8646080808448" stroke="hsla(294.4878486525417, 70%, 60%, 0.6)" stroke-width="2"/><circle cx="426.1342157324024" cy="323.8646080808448" r="4" fill="hsla(294.4878486525417, 70%, 60%, 0.6)"/><line x1="400" y1="400" x2="465.8942852097616" y2="353.7664806517424" stroke="hsla(294.4878486525417, 70%, 60%, 0.6)" stroke-width="2"/><circle cx="465.8942852097616" cy="353.7664806517424" r="4" fill="hsla(294.4878486525417, 70%, 60%, 0.6)"/><line x1="400" y1="400" x2="480.4849774013714" y2="401.3279861941486" stroke="hsla(294.4878486525417, 70%, 60%, 0.6)" stroke-width="2"/><circle cx="480.4849774013714" cy="401.3279861941486" r="4" fill="hsla(294.4878486525417, 70%, 60%, 0.6)"/><line x1="400" y1="400" x2="464.3331438094245" y2="448.3822461469806" stroke="hsla(294.4878486525417, 70%, 60%, 0.6)" stroke-width="2"/><circle cx="464.3331438094245" cy="448.3822461469806" r="4" fill="hsla(294.4878486525417, 70%, 60%, 0.6)"/><line x1="400" y1="400" x2="423.60823588541234" y2="476.9561325237297" stroke="hsla(294.4878486525417, 70%, 60%, 0.6)" stroke-width="2"/><circle cx="423.60823588541234" cy="476.9561325237297" r="4" fill="hsla(294.4878486525417, 70%, 60%, 0.6)"/><line x1="400" y1="400" x2="373.8657842675977" y2="476.13539191915527" stroke="hsla(294.4878486525417, 70%, 60%, 0.6)" stroke-width="2"/><circle cx="373.8657842675977" cy="476.13539191915527" r="4" fill="hsla(294.4878486525417, 70%, 60%, 0.6)"/><line x1="400" y1="400" x2="334.10571479023844" y2="446.23351934825763" stroke="hsla(294.4878486525417, 70%, 60%, 0.6)" stroke-width="2"/><circle cx="334.10571479023844" cy="446.23351934825763" r="4" fill="hsla(294.4878486525417, 70%, 60%, 0.6)"/><line x1="400" y1="400" x2="319.5150225986286" y2="398.67201380585146" stroke="hsla(294.4878486525417, 70%, 60%, 0.6)" stroke-width="2"/><circle cx="319.5150225986286" cy="398.67201380585146" r="4" fill="hsla(294.4878486525417, 70%, 60%, 0.6)"/><line x1="400" y1="400" x2="335.66685619057546" y2="351.61775385301945" stroke="hsla(294.4878486525417, 70%, 60%, 0.6)" stroke-width="2"/><circle cx="335.66685619057546" cy="351.61775385301945" r="4" fill="hsla(294.4878486525417, 70%, 60%, 0.6)"/><line x1="400" y1="400" x2="376.3917641145876" y2="323.04386747627035" stroke="hsla(294.4878486525417, 70%, 60%, 0.6)" stroke-width="2"/><circle cx="376.3917641145876" cy="323.04386747627035" r="4" fill="hsla(294.4878486525417, 70%, 60%, 0.6)"/><line x1="400" y1="400" x2="394.37324518278035" y2="578.0887517499829" stroke="hsla(119.21254751359247, 70%, 60%, 0.6)" stroke-width="2"/><circle cx="394.37324518278035" cy="578.0887517499829" r="4" fill="hsla(119.21254751359247, 70%, 60%, 0.6)"/><line x1="400" y1="400" x2="221.91124825001717" y2="394.3732451827804" stroke="hsla(119.21254751359247, 70%, 60%, 0.6)" stroke-width="2"/><circle cx="221.91124825001717" cy="394.3732451827804" r="4" fill="hsla(119.21254751359247, 70%, 60%, 0.6)"/><line x1="400" y1="400" x2="405.6267548172196" y2="221.91124825001717" stroke="hsla(119.21254751359247, 70%, 60%, 0.6)" stroke-width="2"/><circle cx="405.6267548172196" cy="221.91124825001717" r="4" fill="hsla(119.21254751359247, 70%, 60%, 0.6)"/><line x1="400" y1="400" x2="578.0887517499829" y2="405.6267548172196" stroke="hsla(119.21254751359247, 70%, 60%, 0.6)" stroke-width="2"/><circle cx="578.0887517499829" cy="405.6267548172196" r="4" fill="hsla(119.21254751359247, 70%, 60%, 0.6)"/><line x1="400" y1="400" x2="557.0316798035074" y2="228.51358372363404" stroke="hsla(230.47838315304745, 70%, 60%, 0.6)" stroke-width="2"/><circle cx="557.0316798035074" cy="228.51358372363404" r="4" fill="hsla(230.47838315304745, 70%, 60%, 0.6)"/><line x1="400" y1="400" x2="627.8384840720184" y2="353.56548045917873" stroke="hsla(230.47838315304745, 70%, 60%, 0.6)" stroke-width="2"/><circle cx="627.8384840720184" cy="353.56548045917873" r="4" fill="hsla(230.47838315304745, 70%, 60%, 0.6)"/><line x1="400" y1="400" x2="611.6187313702701" y2="496.353785408046" stroke="hsla(230.47838315304745, 70%, 60%, 0.6)" stroke-width="2"/><circle cx="611.6187313702701" cy="496.353785408046" r="4" fill="hsla(230.47838315304745, 70%, 60%, 0.6)"/><line x1="400" y1="400" x2="514.5678159412122" y2="602.3382192757533" stroke="hsla(230.47838315304745, 70%, 60%, 0.6)" stroke-width="2"/><circle cx="514.5678159412122" cy="602.3382192757533" r="4" fill="hsla(230.47838315304745, 70%, 60%, 0.6)"/><line x1="400" y1="400" x2="373.75588883945323" y2="631.036330603252" stroke="hsla(230.47838315304745, 70%, 60%, 0.6)" stroke-width="2"/><circle cx="373.75588883945323" cy="631.036330603252" r="4" fill="hsla(230.47838315304745, 70%, 60%, 0.6)"/><line x1="400" y1="400" x2="242.96832019649287" y2="571.4864162763661" stroke="hsla(230.47838315304745, 70%, 60%, 0.6)" stroke-width="2"/><circle cx="242.96832019649287" cy="571.4864162763661" r="4" fill="hsla(230.47838315304745, 70%, 60%, 0.6)"/><line x1="400" y1="400" x2="172.16151592798158" y2="446.4345195408215" stroke="hsla(230.47838315304745, 70%, 60%, 0.6)" stroke-width="2"/><circle cx="172.16151592798158" cy="446.4345195408215" r="4" fill="hsla(230.47838315304745, 70%, 60%, 0.6)"/><line x1="400" y1="400" x2="188.38126862972982" y2="303.6462145919542" stroke="hsla(230.47838315304745, 70%, 60%, 0.6)" stroke-width="2"/><circle cx="188.38126862972982" cy="303.6462145919542" r="4" fill="hsla(230.47838315304745, 70%, 60%, 0.6)"/><line x1="400" y1="400" x2="285.4321840587876" y2="197.66178072424677" stroke="hsla(230.47838315304745, 70%, 60%, 0.6)" stroke-width="2"/><circle cx="285.4321840587876" cy="197.66178072424677" r="4" fill="hsla(230.47838315304745, 70%, 60%, 0.6)"/><line x1="400" y1="400" x2="426.24411116054654" y2="168.96366939674792" stroke="hsla(230.47838315304745, 70%, 60%, 0.6)" stroke-width="2"/><circle cx="426.24411116054654" cy="168.96366939674792" r="4" fill="hsla(230.47838315304745, 70%, 60%, 0.6)"/><line x1="400" y1="400" x2="518.7773477233134" y2="539.7614572682212" stroke="hsla(239.3484080146403, 70%, 60%, 0.6)" stroke-width="2"/><circle cx="518.7773477233134" cy="539.7614572682212" r="4" fill="hsla(239.3484080146403, 70%, 60%, 0.6)"/><line x1="400" y1="400" x2="338.3517013974439" y2="572.7449291566377" stroke="hsla(239.3484080146403, 70%, 60%, 0.6)" stroke-width="2"/><circle cx="338.3517013974439" cy="572.7449291566377" r="4" fill="hsla(239.3484080146403, 70%, 60%, 0.6)"/><line x1="400" y1="400" x2="219.5743536741305" y2="432.98347188841655" stroke="hsla(239.3484080146403, 70%, 60%, 0.6)" stroke-width="2"/><circle cx="219.5743536741305" cy="432.98347188841655" r="4" fill="hsla(239.3484080146403, 70%, 60%, 0.6)"/><line x1="400" y1="400" x2="281.22265227668663" y2="260.23854273177886" stroke="hsla(239.3484080146403, 70%, 60%, 0.6)" stroke-width="2"/><circle cx="281.22265227668663" cy="260.23854273177886" r="4" fill="hsla(239.3484080146403, 70%, 60%, 0.6)"/><line x1="400" y1="400" x2="461.648298602556" y2="227.25507084336223" stroke="hsla(239.3484080146403, 70%, 60%, 0.6)" stroke-width="2"/><circle cx="461.648298602556" cy="227.25507084336223" r="4" fill="hsla(239.3484080146403, 70%, 60%, 0.6)"/><line x1="400" y1="400" x2="580.4256463258695" y2="367.01652811158345" stroke="hsla(239.3484080146403, 70%, 60%, 0.6)" stroke-width="2"/><circle cx="580.4256463258695" cy="367.01652811158345" r="4" fill="hsla(239.3484080146403, 70%, 60%, 0.6)"/><circle cx="400" cy="400" r="15" fill="rgba(255,255,255,0.2)"/></svg>